<svg version="1.1" viewBox="0.0 0.0 664.6745406824147 173.63779527559055" fill="none" stroke="none" stroke-linecap="square" stroke-miterlimit="10" xmlns:xlink="http://www.w3.org/1999/xlink" xmlns="http://www.w3.org/2000/svg"><clipPath id="p.0"><path d="m0 0l664.67456 0l0 173.6378l-664.67456 0l0 -173.6378z" clip-rule="nonzero"/></clipPath><g clip-path="url(#p.0)"><path fill="#000000" fill-opacity="0.0" d="m0 0l664.67456 0l0 173.6378l-664.67456 0z" fill-rule="evenodd"/><path fill="#000000" fill-opacity="0.0" d="m29.832022 27.979002l229.88976 0l0 78.078735l-229.88976 0z" fill-rule="evenodd"/><path fill="#999999" d="m45.95702 41.586502q2.65625 0 4.296875 1.734375q1.65625 1.734375 1.65625 4.84375q0 3.125 -1.609375 4.9375q-1.609375 1.796875 -4.34375 1.796875l-5.84375 0l0 -13.3125l5.84375 0zm-0.234375 10.859375q1.40625 0 2.328125 -1.0q0.921875 -1.015625 0.921875 -3.015625q0 -2.296875 -0.96875 -3.34375q-0.953125 -1.046875 -2.78125 -1.046875l-2.171875 0l0 8.40625l2.671875 0zm10.593842 -10.859375l2.609375 4.25l2.703125 -4.25l3.2031288 0l-4.265629 6.359375l4.640629 6.953125l-3.4843788 0l-2.90625 -4.609375l-2.96875 4.609375l-3.296875 0l4.671875 -6.984375l-4.296875 -6.328125l3.390625 0zm16.099827 0.25l0 13.0625l-2.640625 0l0 -8.46875l-3.28125 0l0 -2.0l0.171875 0q1.59375 0 2.515625 -0.65625q0.9375 -0.65625 1.125 -1.9375l2.109375 0z" fill-rule="nonzero"/><path fill="#999999" d="m84.756584 41.586502q0.71875 0.015625 0.984375 0.0625l0 1.015625q-0.21875 -0.046875 -0.46875 -0.0625q-0.25 -0.03125 -0.390625 -0.03125q-0.6875 0 -0.984375 0.34375q-0.296875 0.328125 -0.296875 1.078125l0 1.28125l1.890625 0l0 0.984375l-1.890625 0l0 8.640625l-1.171875 0l0 -8.640625l-1.65625 0l0 -0.984375l1.65625 0l0 -0.921875q0 -1.53125 0.578125 -2.140625q0.578125 -0.625 1.75 -0.625zm3.0467834 0l0 1.875l-1.171875 0l0 -1.875l1.171875 0zm0 3.6875l0 9.625l-1.171875 0l0 -9.625l1.171875 0zm3.4524994 -3.6875l0 13.3125l-1.171875 0l0 -13.3125l1.171875 0zm6.1243744 3.40625q1.953125 0 3.09375 1.421875q1.140625 1.421875 1.140625 3.796875l0 0.1875l-7.40625 0q0.03125 1.671875 0.890625 2.734375q0.875 1.0625 2.28125 1.0625q1.171875 0 1.921875 -0.609375q0.765625 -0.609375 1.09375 -1.859375l1.1875 0q-0.421875 1.734375 -1.453125 2.59375q-1.015625 0.859375 -2.75 0.859375q-2.046875 0 -3.203125 -1.359375q-1.140625 -1.375 -1.140625 -3.734375q0 -2.234375 1.15625 -3.65625q1.15625 -1.4375 3.1875 -1.4375zm3.0625 4.421875q-0.046875 -1.4375 -0.90625 -2.4375q-0.84375 -1.0 -2.171875 -1.0q-1.25 0 -2.109375 0.9375q-0.84375 0.921875 -1.046875 2.5l6.234375 0zm5.2146454 -8.109375l0.9375 0q-1.203125 1.890625 -1.796875 4.1875q-0.59375 2.296875 -0.59375 4.84375q0 2.0 0.640625 4.1875q0.65625 2.171875 1.75 3.9375l-0.9375 0q-1.453125 -2.421875 -2.046875 -4.421875q-0.578125 -2.0 -0.578125 -4.109375q0 -2.234375 0.65625 -4.40625q0.65625 -2.1875 1.96875 -4.21875zm5.4532166 3.6875q1.578125 0 2.5 0.8125q0.9375 0.796875 1.03125 2.28125l-1.171875 0q-0.0625 -1.015625 -0.75 -1.5625q-0.6875 -0.546875 -1.78125 -0.546875q-1.015625 0 -1.640625 0.4375q-0.625 0.4375 -0.625 1.21875q0 0.625 0.546875 1.03125q0.5625 0.40625 1.453125 0.609375l2.015625 0.4375q0.984375 0.234375 1.640625 0.90625q0.65625 0.65625 0.65625 1.671875q0 1.34375 -1.109375 2.125q-1.109375 0.765625 -2.765625 0.765625q-1.796875 0 -2.8125 -0.859375q-1.0 -0.859375 -1.140625 -2.53125l1.1875 0q0.0625 1.125 0.828125 1.765625q0.765625 0.640625 2.0 0.640625q1.09375 0 1.859375 -0.484375q0.765625 -0.5 0.765625 -1.359375q0 -0.640625 -0.5 -1.0625q-0.484375 -0.4375 -1.640625 -0.6875l-1.484375 -0.328125q-1.265625 -0.28125 -1.984375 -0.890625q-0.703125 -0.609375 -0.703125 -1.6875q0 -1.25 1.015625 -1.96875q1.03125 -0.734375 2.609375 -0.734375zm4.4259796 -3.6875l0.921875 0q1.359375 2.21875 2.0 4.234375q0.640625 2.015625 0.640625 4.28125q0 2.3125 -0.671875 4.484375q-0.671875 2.171875 -1.953125 4.140625l-0.9375 0q1.203125 -1.9375 1.796875 -4.21875q0.59375 -2.28125 0.59375 -4.8125q0 -1.9375 -0.640625 -4.078125q-0.625 -2.140625 -1.75 -4.03125z" fill-rule="nonzero"/><path fill="#000000" d="m47.910145 63.586502l0 9.203125q0 2.140625 -1.125 3.28125q-1.109375 1.140625 -3.296875 1.140625q-1.9375 0 -3.171875 -1.09375q-1.21875 -1.09375 -1.21875 -2.953125l0 -1.234375l2.640625 0l0 0.5q0 1.328125 0.421875 1.828125q0.4375 0.484375 1.28125 0.484375q0.765625 0 1.15625 -0.40625q0.390625 -0.421875 0.390625 -1.65625l0 -9.09375l2.921875 0zm7.172592 -0.328125q2.421875 0 3.875 1.125q1.453125 1.125 1.453125 3.171875l-2.828125 0q-0.0625 -1.0 -0.6875 -1.5q-0.625 -0.515625 -1.9375 -0.515625q-0.890625 0 -1.46875 0.390625q-0.5625 0.390625 -0.5625 1.125q0 0.5 0.234375 0.75q0.25 0.234375 0.984375 0.515625q0.734375 0.265625 3.203125 0.84375q1.65625 0.40625 2.578125 1.359375q0.9375 0.953125 0.9375 2.421875q0 1.9375 -1.453125 3.109375q-1.453125 1.15625 -4.078125 1.15625q-2.515625 0 -4.109375 -1.234375q-1.578125 -1.234375 -1.578125 -3.421875l0 -0.078125l2.828125 0q0.015625 1.25 0.828125 1.859375q0.8125 0.609375 2.125 0.609375q1.1875 0 1.890625 -0.4375q0.703125 -0.4375 0.703125 -1.21875q0 -0.65625 -0.546875 -1.0625q-0.53125 -0.421875 -1.71875 -0.71875q-1.53125 -0.34375 -2.78125 -0.734375q-1.25 -0.390625 -2.0625 -1.25q-0.8125 -0.875 -0.8125 -2.234375q0 -1.796875 1.421875 -2.90625q1.4375 -1.125 3.5625 -1.125zm13.49715 0q2.96875 0 4.75 2.0q1.796875 1.984375 1.796875 5.03125q0 2.984375 -1.796875 4.953125q-1.796875 1.96875 -4.75 1.96875q-1.921875 0 -3.421875 -0.875q-1.5000038 -0.890625 -2.3281288 -2.484375q-0.8125 -1.59375 -0.8125 -3.5625q0 -3.078125 1.796875 -5.046875q1.8125038 -1.984375 4.765629 -1.984375zm-3.625 7.03125q0 1.96875 0.9375 3.21875q0.9375 1.234375 2.6875 1.234375q1.71875 0 2.65625 -1.21875q0.953125 -1.21875 0.953125 -3.234375q0 -2.09375 -0.96875 -3.328125q-0.953125 -1.234375 -2.671875 -1.234375q-1.703125 0 -2.65625 1.25q-0.9375 1.234375 -0.9375 3.3125zm15.073929 -6.703125l5.546875 8.9375l0.046875 0l0 -8.9375l2.734375 0l0 13.3125l-2.921875 0l-5.546875 -8.921875l-0.03125 0l0 8.921875l-2.75 0l0 -13.3125l2.921875 0z" fill-rule="nonzero"/><path fill="#000000" d="m98.93096 63.586502q0.71875 0.015625 0.984375 0.0625l0 1.015625q-0.21875 -0.046875 -0.46875 -0.0625q-0.25 -0.03125 -0.390625 -0.03125q-0.6875 0 -0.984375 0.34375q-0.296875 0.328125 -0.296875 1.078125l0 1.28125l1.890625 0l0 0.984375l-1.890625 0l0 8.640625l-1.171875 0l0 -8.640625l-1.65625 0l0 -0.984375l1.65625 0l0 -0.921875q0 -1.53125 0.578125 -2.140625q0.578125 -0.625 1.75 -0.625zm3.0467834 0l0 1.875l-1.171875 0l0 -1.875l1.171875 0zm0 3.6875l0 9.625l-1.171875 0l0 -9.625l1.171875 0zm3.4524994 -3.6875l0 13.3125l-1.171875 0l0 -13.3125l1.171875 0zm6.1243744 3.40625q1.953125 0 3.09375 1.421875q1.140625 1.421875 1.140625 3.796875l0 0.1875l-7.40625 0q0.03125 1.671875 0.890625 2.734375q0.875 1.0625 2.28125 1.0625q1.171875 0 1.921875 -0.609375q0.765625 -0.609375 1.09375 -1.859375l1.1875 0q-0.421875 1.734375 -1.453125 2.59375q-1.015625 0.859375 -2.75 0.859375q-2.046875 0 -3.203125 -1.359375q-1.140625 -1.375 -1.140625 -3.734375q0 -2.234375 1.15625 -3.65625q1.15625 -1.4375 3.1875 -1.4375zm3.0625 4.421875q-0.046875 -1.4375 -0.90625 -2.4375q-0.84375 -1.0 -2.171875 -1.0q-1.25 0 -2.109375 0.9375q-0.84375 0.921875 -1.046875 2.5l6.234375 0zm5.2146454 -8.109375l0.9375 0q-1.203125 1.890625 -1.796875 4.1875q-0.59375 2.296875 -0.59375 4.84375q0 2.0 0.640625 4.1875q0.65625 2.171875 1.75 3.9375l-0.9375 0q-1.453125 -2.421875 -2.046875 -4.421875q-0.578125 -2.0 -0.578125 -4.109375q0 -2.234375 0.65625 -4.40625q0.65625 -2.1875 1.96875 -4.21875zm5.4532166 3.6875q1.578125 0 2.5 0.8125q0.9374924 0.796875 1.0312424 2.28125l-1.1718674 0q-0.0625 -1.015625 -0.75 -1.5625q-0.6875 -0.546875 -1.78125 -0.546875q-1.015625 0 -1.640625 0.4375q-0.625 0.4375 -0.625 1.21875q0 0.625 0.546875 1.03125q0.5625 0.40625 1.453125 0.609375l2.015625 0.4375q0.984375 0.234375 1.6406174 0.90625q0.65625 0.65625 0.65625 1.671875q0 1.34375 -1.109375 2.125q-1.1093674 0.765625 -2.7656174 0.765625q-1.796875 0 -2.8125 -0.859375q-1.0 -0.859375 -1.140625 -2.53125l1.1875 0q0.0625 1.125 0.828125 1.765625q0.765625 0.640625 2.0 0.640625q1.09375 0 1.859375 -0.484375q0.765625 -0.5 0.765625 -1.359375q0 -0.640625 -0.5 -1.0625q-0.484375 -0.4375 -1.640625 -0.6875l-1.484375 -0.328125q-1.265625 -0.28125 -1.984375 -0.890625q-0.703125 -0.609375 -0.703125 -1.6875q0 -1.25 1.015625 -1.96875q1.03125 -0.734375 2.609375 -0.734375zm4.425972 -3.6875l0.921875 0q1.359375 2.21875 2.0 4.234375q0.640625 2.015625 0.640625 4.28125q0 2.3125 -0.671875 4.484375q-0.671875 2.171875 -1.953125 4.140625l-0.9375 0q1.203125 -1.9375 1.796875 -4.21875q0.59375 -2.28125 0.59375 -4.8125q0 -1.9375 -0.640625 -4.078125q-0.625 -2.140625 -1.75 -4.03125z" fill-rule="nonzero"/><path fill="#000000" fill-opacity="0.0" d="m525.83203 51.979004l229.88977 0l0 54.078735l-229.88977 0z" fill-rule="evenodd"/><path fill="#000000" d="m543.91016 65.5865l0 9.203125q0 2.140625 -1.125 3.28125q-1.109375 1.140625 -3.296875 1.140625q-1.9375 0 -3.171875 -1.09375q-1.21875 -1.09375 -1.21875 -2.953125l0 -1.234375l2.640625 0l0 0.5q0 1.328125 0.421875 1.828125q0.4375 0.484375 1.28125 0.484375q0.765625 0 1.15625 -0.40625q0.390625 -0.421875 0.390625 -1.65625l0 -9.09375l2.921875 0zm7.1726074 -0.328125q2.421875 0 3.875 1.125q1.453125 1.125 1.453125 3.171875l-2.828125 0q-0.0625 -1.0 -0.6875 -1.5q-0.625 -0.515625 -1.9375 -0.515625q-0.890625 0 -1.46875 0.390625q-0.5625 0.390625 -0.5625 1.125q0 0.5 0.234375 0.75q0.25 0.234375 0.984375 0.515625q0.734375 0.265625 3.203125 0.84375q1.65625 0.40625 2.578125 1.359375q0.9375 0.953125 0.9375 2.421875q0 1.9375 -1.453125 3.109375q-1.453125 1.15625 -4.078125 1.15625q-2.515625 0 -4.109375 -1.234375q-1.578125 -1.234375 -1.578125 -3.421875l0 -0.078125l2.828125 0q0.015625 1.25 0.828125 1.859375q0.8125 0.609375 2.125 0.609375q1.1875 0 1.890625 -0.4375q0.703125 -0.4375 0.703125 -1.21875q0 -0.65625 -0.546875 -1.0625q-0.53125 -0.421875 -1.71875 -0.71875q-1.53125 -0.34375 -2.78125 -0.734375q-1.25 -0.390625 -2.0625 -1.25q-0.8125 -0.875 -0.8125 -2.234375q0 -1.796875 1.421875 -2.90625q1.4375 -1.125 3.5625 -1.125zm13.497131 0q2.96875 0 4.75 2.0q1.796875 1.984375 1.796875 5.03125q0 2.984375 -1.796875 4.953125q-1.796875 1.96875 -4.75 1.96875q-1.921875 0 -3.421875 -0.875q-1.5 -0.890625 -2.328125 -2.484375q-0.8125 -1.59375 -0.8125 -3.5625q0 -3.078125 1.796875 -5.046875q1.8125 -1.984375 4.765625 -1.984375zm-3.625 7.03125q0 1.96875 0.9375 3.21875q0.9375 1.234375 2.6875 1.234375q1.71875 0 2.65625 -1.21875q0.953125 -1.21875 0.953125 -3.234375q0 -2.09375 -0.96875 -3.328125q-0.953125 -1.234375 -2.671875 -1.234375q-1.703125 0 -2.65625 1.25q-0.9375 1.234375 -0.9375 3.3125zm15.073914 -6.703125l5.546875 8.9375l0.046875 0l0 -8.9375l2.734375 0l0 13.3125l-2.921875 0l-5.546875 -8.921875l-0.03125 0l0 8.921875l-2.75 0l0 -13.3125l2.921875 0z" fill-rule="nonzero"/><path fill="#000000" d="m594.93097 65.5865q0.71875 0.015625 0.984375 0.0625l0 1.015625q-0.21875 -0.046875 -0.46875 -0.0625q-0.25 -0.03125 -0.390625 -0.03125q-0.6875 0 -0.984375 0.34375q-0.296875 0.328125 -0.296875 1.078125l0 1.28125l1.890625 0l0 0.984375l-1.890625 0l0 8.640625l-1.171875 0l0 -8.640625l-1.65625 0l0 -0.984375l1.65625 0l0 -0.921875q0 -1.53125 0.578125 -2.140625q0.578125 -0.625 1.75 -0.625zm3.046753 0l0 1.875l-1.171875 0l0 -1.875l1.171875 0zm0 3.6875l0 9.625l-1.171875 0l0 -9.625l1.171875 0zm3.4525146 -3.6875l0 13.3125l-1.171875 0l0 -13.3125l1.171875 0zm6.1243896 3.40625q1.953125 0 3.09375 1.421875q1.140625 1.421875 1.140625 3.796875l0 0.1875l-7.40625 0q0.03125 1.671875 0.890625 2.734375q0.875 1.0625 2.28125 1.0625q1.171875 0 1.921875 -0.609375q0.765625 -0.609375 1.09375 -1.859375l1.1875 0q-0.421875 1.734375 -1.453125 2.59375q-1.015625 0.859375 -2.75 0.859375q-2.046875 0 -3.203125 -1.359375q-1.140625 -1.375 -1.140625 -3.734375q0 -2.234375 1.15625 -3.65625q1.15625 -1.4375 3.1875 -1.4375zm3.0625 4.421875q-0.046875 -1.4375 -0.90625 -2.4375q-0.84375 -1.0 -2.171875 -1.0q-1.25 0 -2.109375 0.9375q-0.84375 0.921875 -1.046875 2.5l6.234375 0zm5.2146606 -8.109375l0.9375 0q-1.203125 1.890625 -1.796875 4.1875q-0.59375 2.296875 -0.59375 4.84375q0 2.0 0.640625 4.1875q0.65625 2.171875 1.75 3.9375l-0.9375 0q-1.453125 -2.421875 -2.046875 -4.421875q-0.578125 -2.0 -0.578125 -4.109375q0 -2.234375 0.65625 -4.40625q0.65625 -2.1875 1.96875 -4.21875zm5.453186 3.6875q1.578125 0 2.5 0.8125q0.9375 0.796875 1.03125 2.28125l-1.171875 0q-0.0625 -1.015625 -0.75 -1.5625q-0.6875 -0.546875 -1.78125 -0.546875q-1.015625 0 -1.640625 0.4375q-0.625 0.4375 -0.625 1.21875q0 0.625 0.546875 1.03125q0.5625 0.40625 1.453125 0.609375l2.015625 0.4375q0.984375 0.234375 1.640625 0.90625q0.65625 0.65625 0.65625 1.671875q0 1.34375 -1.109375 2.125q-1.109375 0.765625 -2.765625 0.765625q-1.796875 0 -2.8125 -0.859375q-1.0 -0.859375 -1.140625 -2.53125l1.1875 0q0.0625 1.125 0.828125 1.765625q0.765625 0.640625 2.0 0.640625q1.09375 0 1.859375 -0.484375q0.765625 -0.5 0.765625 -1.359375q0 -0.640625 -0.5 -1.0625q-0.484375 -0.4375 -1.640625 -0.6875l-1.484375 -0.328125q-1.265625 -0.28125 -1.984375 -0.890625q-0.703125 -0.609375 -0.703125 -1.6875q0 -1.25 1.015625 -1.96875q1.03125 -0.734375 2.609375 -0.734375zm4.4259644 -3.6875l0.921875 0q1.359375 2.21875 2.0 4.234375q0.640625 2.015625 0.640625 4.28125q0 2.3125 -0.671875 4.484375q-0.671875 2.171875 -1.953125 4.140625l-0.9375 0q1.203125 -1.9375 1.796875 -4.21875q0.59375 -2.28125 0.59375 -4.8125q0 -1.9375 -0.640625 -4.078125q-0.625 -2.140625 -1.75 -4.03125z" fill-rule="nonzero"/><path fill="#000000" fill-opacity="0.0" d="m198.92914 73.125984l274.4252 0" fill-rule="evenodd"/><path stroke="#a2c4c9" stroke-width="2.0" stroke-linejoin="round" stroke-linecap="butt" d="m198.92914 73.125984l262.4252 0" fill-rule="evenodd"/><path fill="#a2c4c9" stroke="#a2c4c9" stroke-width="2.0" stroke-linecap="butt" d="m461.35434 76.42945l9.076172 -3.3034668l-9.076172 -3.3034668z" fill-rule="evenodd"/><path fill="#000000" fill-opacity="0.0" d="m196.6378 106.05774l274.42517 0l0 38.173233l-274.42517 0z" fill-rule="evenodd"/><path fill="#45818e" d="m265.1799 119.66524l0 13.3125l-1.078125 0l0 -1.828125l-0.046875 0q-0.40625 0.96875 -1.40625 1.546875q-0.984375 0.5625 -2.03125 0.5625q-1.96875 0 -3.15625 -1.375q-1.171875 -1.390625 -1.171875 -3.71875q0 -2.296875 1.171875 -3.6875q1.171875 -1.40625 3.15625 -1.40625q1.125 0 2.046875 0.546875q0.921875 0.546875 1.296875 1.5625l0.046875 0l0 -5.515625l1.171875 0zm-7.703125 8.5q0 1.78125 0.84375 2.953125q0.84375 1.15625 2.296875 1.15625q1.625 0 2.5 -1.140625q0.890625 -1.15625 0.890625 -2.96875q0 -1.8125 -0.890625 -2.953125q-0.875 -1.15625 -2.5 -1.15625q-1.4375 0 -2.296875 1.140625q-0.84375 1.125 -0.84375 2.96875zm13.744019 -5.09375q1.8125 0 2.671875 0.796875q0.859375 0.78125 0.859375 2.21875l0 5.234375q0 0.296875 0.15625 0.484375q0.171875 0.171875 0.53125 0.171875q0.109375 0 0.1875 0q0.09375 -0.015625 0.1875 -0.0625l0 0.984375q-0.21875 0.046875 -0.390625 0.0625q-0.171875 0.015625 -0.359375 0.015625q-0.765625 0 -1.078125 -0.359375q-0.3125 -0.375 -0.3125 -1.21875l0 -0.09375l-0.046875 0q-0.71875 1.09375 -1.515625 1.53125q-0.78125 0.421875 -1.984375 0.421875q-1.453125 0 -2.34375 -0.734375q-0.890625 -0.734375 -0.890625 -2.09375q0 -1.390625 0.96875 -2.09375q0.984375 -0.703125 4.34375 -1.0q0.765625 -0.078125 1.0625 -0.359375q0.3125 -0.28125 0.3125 -0.9375q0 -0.984375 -0.59375 -1.484375q-0.59375 -0.5 -1.921875 -0.5q-1.21875 0 -1.890625 0.578125q-0.65625 0.578125 -0.6875 1.671875l-1.171875 0q0.078125 -1.59375 1.078125 -2.40625q1.015625 -0.828125 2.828125 -0.828125zm2.3125 4.640625q-0.171875 0.328125 -1.109375 0.453125q-0.9375 0.125 -2.0625 0.328125q-1.125 0.1875 -1.703125 0.640625q-0.578125 0.453125 -0.578125 1.234375q0 0.84375 0.625 1.375q0.640625 0.53125 1.515625 0.53125q1.4375 0 2.390625 -0.859375q0.96875 -0.859375 0.96875 -2.125l0 -1.578125l-0.046875 0zm5.4334106 -7.25l0 2.890625l1.96875 0l0 0.984375l-1.96875 0l0 6.578125q0 0.734375 0.28125 0.96875q0.28125 0.21875 0.71875 0.21875q0.171875 0 0.421875 -0.015625q0.265625 -0.015625 0.546875 -0.03125l0 1.0q-0.265625 0.015625 -0.53125 0.015625q-0.25 0.015625 -0.515625 0.015625q-1.171875 0 -1.640625 -0.4375q-0.453125 -0.453125 -0.453125 -1.609375l0 -6.703125l-1.6875 0l0 -0.984375l1.6875 0l0 -2.890625l1.171875 0zm7.457855 2.609375q1.8125 0 2.671875 0.796875q0.859375 0.78125 0.859375 2.21875l0 5.234375q0 0.296875 0.15625 0.484375q0.171875 0.171875 0.53125 0.171875q0.109375 0 0.1875 0q0.09375 -0.015625 0.1875 -0.0625l0 0.984375q-0.21875 0.046875 -0.390625 0.0625q-0.171875 0.015625 -0.359375 0.015625q-0.765625 0 -1.078125 -0.359375q-0.3125 -0.375 -0.3125 -1.21875l0 -0.09375l-0.046875 0q-0.71875 1.09375 -1.515625 1.53125q-0.78125 0.421875 -1.984375 0.421875q-1.453125 0 -2.34375 -0.734375q-0.890625 -0.734375 -0.890625 -2.09375q0 -1.390625 0.96875 -2.09375q0.984375 -0.703125 4.34375 -1.0q0.765625 -0.078125 1.0625 -0.359375q0.3125 -0.28125 0.3125 -0.9375q0 -0.984375 -0.59375 -1.484375q-0.59375 -0.5 -1.921875 -0.5q-1.21875 0 -1.890625 0.578125q-0.65625 0.578125 -0.6875 1.671875l-1.171875 0q0.078125 -1.59375 1.078125 -2.40625q1.015625 -0.828125 2.828125 -0.828125zm2.3125 4.640625q-0.171875 0.328125 -1.109375 0.453125q-0.9375 0.125 -2.0625 0.328125q-1.125 0.1875 -1.703125 0.640625q-0.578125 0.453125 -0.578125 1.234375q0 0.84375 0.625 1.375q0.640625 0.53125 1.515625 0.53125q1.4375 0 2.390625 -0.859375q0.96875 -0.859375 0.96875 -2.125l0 -1.578125l-0.046875 0zm10.616699 -7.25l0 2.890625l1.96875 0l0 0.984375l-1.96875 0l0 6.578125q0 0.734375 0.28125 0.96875q0.28125 0.21875 0.71875 0.21875q0.171875 0 0.421875 -0.015625q0.265625 -0.015625 0.546875 -0.03125l0 1.0q-0.265625 0.015625 -0.53125 0.015625q-0.25 0.015625 -0.515625 0.015625q-1.171875 0 -1.640625 -0.4375q-0.453125 -0.453125 -0.453125 -1.609375l0 -6.703125l-1.6875 0l0 -0.984375l1.6875 0l0 -2.890625l1.171875 0zm8.114105 2.765625l0.296875 0l0 1.171875l-0.140625 0q-1.546875 0 -2.5 1.0q-0.9375 0.984375 -0.9375 2.484375l0 5.09375l-1.171875 0l0 -9.625l1.078125 0l0 2.25l0.03125 0q0.4375 -1.125 1.328125 -1.75q0.890625 -0.625 2.015625 -0.625zm5.2193604 -0.15625q1.8125 0 2.671875 0.796875q0.859375 0.78125 0.859375 2.21875l0 5.234375q0 0.296875 0.15625 0.484375q0.171875 0.171875 0.53125 0.171875q0.109375 0 0.1875 0q0.09375 -0.015625 0.1875 -0.0625l0 0.984375q-0.21875 0.046875 -0.390625 0.0625q-0.171875 0.015625 -0.359375 0.015625q-0.765625 0 -1.078125 -0.359375q-0.3125 -0.375 -0.3125 -1.21875l0 -0.09375l-0.046875 0q-0.71875 1.09375 -1.515625 1.53125q-0.78125 0.421875 -1.984375 0.421875q-1.453125 0 -2.34375 -0.734375q-0.890625 -0.734375 -0.890625 -2.09375q0 -1.390625 0.96875 -2.09375q0.984375 -0.703125 4.34375 -1.0q0.765625 -0.078125 1.0625 -0.359375q0.3125 -0.28125 0.3125 -0.9375q0 -0.984375 -0.59375 -1.484375q-0.59375 -0.5 -1.921875 -0.5q-1.21875 0 -1.890625 0.578125q-0.65625 0.578125 -0.6875 1.671875l-1.171875 0q0.078125 -1.59375 1.078125 -2.40625q1.015625 -0.828125 2.828125 -0.828125zm2.3125 4.640625q-0.171875 0.328125 -1.109375 0.453125q-0.9375 0.125 -2.0625 0.328125q-1.125 0.1875 -1.703125 0.640625q-0.578125 0.453125 -0.578125 1.234375q0 0.84375 0.625 1.375q0.640625 0.53125 1.515625 0.53125q1.4375 0 2.390625 -0.859375q0.96875 -0.859375 0.96875 -2.125l0 -1.578125l-0.046875 0zm7.8552856 -4.640625q1.8437195 0 2.6718445 0.90625q0.84375 0.90625 0.84375 2.71875l0 6.28125l-1.171875 0l0 -6.078125q0 -1.40625 -0.6093445 -2.125q-0.609375 -0.71875 -1.84375 -0.71875q-0.953125 0 -1.65625 0.46875q-0.703125 0.46875 -1.03125 1.265625q-0.328125 0.78125 -0.328125 1.5625l0 5.625l-1.171875 0l0 -9.625l1.171875 0l0 1.65625l0.03125 0q0.34375 -0.859375 1.1875 -1.390625q0.84375 -0.546875 1.90625 -0.546875zm9.145416 0q1.578125 0 2.5 0.8125q0.9375 0.796875 1.03125 2.28125l-1.171875 0q-0.0625 -1.015625 -0.75 -1.5625q-0.6875 -0.546875 -1.78125 -0.546875q-1.015625 0 -1.640625 0.4375q-0.625 0.4375 -0.625 1.21875q0 0.625 0.546875 1.03125q0.5625 0.40625 1.453125 0.609375l2.015625 0.4375q0.984375 0.234375 1.640625 0.90625q0.65625 0.65625 0.65625 1.671875q0 1.34375 -1.109375 2.125q-1.109375 0.765625 -2.765625 0.765625q-1.796875 0 -2.8125 -0.859375q-1.0 -0.859375 -1.140625 -2.53125l1.1875 0q0.0625 1.125 0.828125 1.765625q0.765625 0.640625 2.0 0.640625q1.09375 0 1.859375 -0.484375q0.765625 -0.5 0.765625 -1.359375q0 -0.640625 -0.5 -1.0625q-0.484375 -0.4375 -1.640625 -0.6875l-1.484375 -0.328125q-1.265625 -0.28125 -1.984375 -0.890625q-0.703125 -0.609375 -0.703125 -1.6875q0 -1.25 1.015625 -1.96875q1.03125 -0.734375 2.609375 -0.734375zm8.53537 -3.40625q0.71875 0.015625 0.984375 0.0625l0 1.015625q-0.21875 -0.046875 -0.46875 -0.0625q-0.25 -0.03125 -0.390625 -0.03125q-0.6875 0 -0.984375 0.34375q-0.296875 0.328125 -0.296875 1.078125l0 1.28125l1.890625 0l0 0.984375l-1.890625 0l0 8.640625l-1.171875 0l0 -8.640625l-1.65625 0l0 -0.984375l1.65625 0l0 -0.921875q0 -1.53125 0.578125 -2.140625q0.578125 -0.625 1.75 -0.625zm5.9217834 3.40625q2.046875 0 3.296875 1.4375q1.25 1.421875 1.25 3.65625q0 1.34375 -0.515625 2.515625q-0.515625 1.171875 -1.5625 1.875q-1.046875 0.703125 -2.46875 0.703125q-2.046875 0 -3.296875 -1.4375q-1.25 -1.4375 -1.25 -3.65625q0 -2.234375 1.25 -3.65625q1.25 -1.4375 3.296875 -1.4375zm-3.375 5.09375q0 1.703125 0.921875 2.90625q0.921875 1.203125 2.453125 1.203125q1.53125 0 2.453125 -1.203125q0.921875 -1.203125 0.921875 -2.90625q0 -1.6875 -0.921875 -2.890625q-0.921875 -1.21875 -2.46875 -1.21875q-1.5 0 -2.4375 1.203125q-0.921875 1.1875 -0.921875 2.90625zm14.141327 -4.9375l0.296875 0l0 1.171875l-0.140625 0q-1.546875 0 -2.5 1.0q-0.9375 0.984375 -0.9375 2.484375l0 5.09375l-1.171875 0l0 -9.625l1.078125 0l0 2.25l0.03125 0q0.4375 -1.125 1.328125 -1.75q0.890625 -0.625 2.015625 -0.625zm5.703766 -0.15625q1.0 0 1.734375 0.484375q0.75 0.46875 1.03125 1.390625q0.453125 -0.921875 1.25 -1.390625q0.8125 -0.484375 1.8125 -0.484375q1.609375 0 2.390625 0.859375q0.796875 0.84375 0.796875 2.4375l0 6.609375l-1.171875 0l0 -6.546875q0 -1.21875 -0.546875 -1.796875q-0.546875 -0.578125 -1.71875 -0.578125q-1.296875 0 -1.96875 0.890625q-0.65625 0.875 -0.65625 2.5l0 5.53125l-1.1875 0l0 -6.59375q0 -1.078125 -0.5 -1.703125q-0.5 -0.625 -1.5 -0.625q-1.40625 0 -2.140625 0.953125q-0.734375 0.953125 -0.734375 2.515625l0 5.453125l-1.171875 0l0 -9.625l1.078125 0l0 1.625l0.0625 0q0.5 -0.953125 1.28125 -1.421875q0.796875 -0.484375 1.859375 -0.484375zm15.056427 0q1.8125 0 2.671875 0.796875q0.859375 0.78125 0.859375 2.21875l0 5.234375q0 0.296875 0.15625 0.484375q0.171875 0.171875 0.53125 0.171875q0.109375 0 0.1875 0q0.09375 -0.015625 0.1875 -0.0625l0 0.984375q-0.21875 0.046875 -0.390625 0.0625q-0.171875 0.015625 -0.359375 0.015625q-0.765625 0 -1.078125 -0.359375q-0.3125 -0.375 -0.3125 -1.21875l0 -0.09375l-0.046875 0q-0.71875 1.09375 -1.515625 1.53125q-0.78125 0.421875 -1.984375 0.421875q-1.453125 0 -2.34375 -0.734375q-0.890625 -0.734375 -0.890625 -2.09375q0 -1.390625 0.96875 -2.09375q0.984375 -0.703125 4.34375 -1.0q0.765625 -0.078125 1.0625 -0.359375q0.3125 -0.28125 0.3125 -0.9375q0 -0.984375 -0.59375 -1.484375q-0.59375 -0.5 -1.921875 -0.5q-1.21875 0 -1.890625 0.578125q-0.65625 0.578125 -0.6875 1.671875l-1.171875 0q0.078125 -1.59375 1.078125 -2.40625q1.015625 -0.828125 2.828125 -0.828125zm2.3125 4.640625q-0.171875 0.328125 -1.109375 0.453125q-0.9375 0.125 -2.0625 0.328125q-1.125 0.1875 -1.703125 0.640625q-0.578125 0.453125 -0.578125 1.234375q0 0.84375 0.625 1.375q0.640625 0.53125 1.515625 0.53125q1.4375 0 2.390625 -0.859375q0.96875 -0.859375 0.96875 -2.125l0 -1.578125l-0.046875 0zm5.43338 -7.25l0 2.890625l1.96875 0l0 0.984375l-1.96875 0l0 6.578125q0 0.734375 0.28125 0.96875q0.28125 0.21875 0.71875 0.21875q0.171875 0 0.421875 -0.015625q0.265625 -0.015625 0.546875 -0.03125l0 1.0q-0.265625 0.015625 -0.53125 0.015625q-0.25 0.015625 -0.515625 0.015625q-1.171875 0 -1.640625 -0.4375q-0.453125 -0.453125 -0.453125 -1.609375l0 -6.703125l-1.6875 0l0 -0.984375l1.6875 0l0 -2.890625l1.171875 0zm4.84848 -0.796875l0 1.875l-1.171875 0l0 -1.875l1.171875 0zm0 3.6875l0 9.625l-1.171875 0l0 -9.625l1.171875 0zm6.3275146 -0.28125q2.046875 0 3.296875 1.4375q1.25 1.421875 1.25 3.65625q0 1.34375 -0.515625 2.515625q-0.515625 1.171875 -1.5625 1.875q-1.046875 0.703125 -2.46875 0.703125q-2.046875 0 -3.296875 -1.4375q-1.25 -1.4375 -1.25 -3.65625q0 -2.234375 1.25 -3.65625q1.25 -1.4375 3.296875 -1.4375zm-3.375 5.09375q0 1.703125 0.921875 2.90625q0.921875 1.203125 2.453125 1.203125q1.53125 0 2.453125 -1.203125q0.921875 -1.203125 0.921875 -2.90625q0 -1.6875 -0.921875 -2.890625q-0.921875 -1.21875 -2.46875 -1.21875q-1.5 0 -2.4375 1.203125q-0.921875 1.1875 -0.921875 2.90625zm13.969452 -5.09375q1.84375 0 2.671875 0.90625q0.84375 0.90625 0.84375 2.71875l0 6.28125l-1.171875 0l0 -6.078125q0 -1.40625 -0.609375 -2.125q-0.609375 -0.71875 -1.84375 -0.71875q-0.953125 0 -1.65625 0.46875q-0.703125 0.46875 -1.03125 1.265625q-0.328125 0.78125 -0.328125 1.5625l0 5.625l-1.171875 0l0 -9.625l1.171875 0l0 1.65625l0.03125 0q0.34375 -0.859375 1.1875 -1.390625q0.84375 -0.546875 1.90625 -0.546875z" fill-rule="nonzero"/><path fill="#000000" fill-opacity="0.0" d="m29.832022 106.05774l195.62206 0l0 38.173233l-195.62206 0z" fill-rule="evenodd"/><path fill="#45818e" d="m41.14452 119.66524l0 1.875l-1.171875 0l0 -1.875l1.171875 0zm0 3.6875l0 9.625l-1.171875 0l0 -9.625l1.171875 0zm6.5462494 -0.28125q1.84375 0 2.671875 0.90625q0.84375 0.90625 0.84375 2.71875l0 6.28125l-1.171875 0l0 -6.078125q0 -1.40625 -0.609375 -2.125q-0.609375 -0.71875 -1.84375 -0.71875q-0.953125 0 -1.65625 0.46875q-0.703125 0.46875 -1.03125 1.265625q-0.328125 0.78125 -0.328125 1.5625l0 5.625l-1.171875 0l0 -9.625l1.171875 0l0 1.65625l0.03125 0q0.34375 -0.859375 1.1875 -1.390625q0.84375 -0.546875 1.90625 -0.546875zm10.286072 0q2.03125 0 3.171875 1.421875q1.15625 1.40625 1.15625 3.671875q0 2.25 -1.15625 3.671875q-1.15625 1.421875 -3.15625 1.421875q-1.15625 0 -2.078125 -0.5625q-0.921875 -0.5625 -1.28125 -1.546875l-0.03125 0l0 5.390625l-1.171875 0l0 -13.1875l1.078125 0l0 1.828125l0.03125 0q0.4375 -1.015625 1.359375 -1.5625q0.921875 -0.546875 2.078125 -0.546875zm-3.375 5.09375q0 1.828125 0.875 2.96875q0.875 1.140625 2.5 1.140625q1.484375 0 2.3125 -1.171875q0.84375 -1.171875 0.84375 -2.9375q0 -1.765625 -0.84375 -2.9375q-0.828125 -1.171875 -2.34375 -1.171875q-1.625 0 -2.484375 1.03125q-0.859375 1.03125 -0.859375 3.078125zm10.697147 -4.8125l0 6.265625q0 1.21875 0.5625 1.9375q0.578125 0.71875 2.0 0.71875q1.34375 0 2.125 -1.078125q0.78125 -1.09375 0.78125 -2.71875l0 -5.125l1.171875 0l0 9.625l-1.09375 0l0 -1.734375l-0.03125 0q-0.46875 0.953125 -1.34375 1.484375q-0.875 0.53125 -1.984375 0.53125q-1.734375 0 -2.546875 -0.921875q-0.8125 -0.921875 -0.8125 -2.65625l0 -6.328125l1.171875 0zm10.723572 -2.890625l0 2.890625l1.96875 0l0 0.984375l-1.96875 0l0 6.578125q0 0.734375 0.28125 0.96875q0.28125 0.21875 0.71875 0.21875q0.171875 0 0.421875 -0.015625q0.265625 -0.015625 0.546875 -0.03125l0 1.0q-0.265625 0.015625 -0.53125 0.015625q-0.25 0.015625 -0.515625 0.015625q-1.171875 0 -1.640625 -0.4375q-0.453125 -0.453125 -0.453125 -1.609375l0 -6.703125l-1.6875 0l0 -0.984375l1.6875 0l0 -2.890625l1.171875 0zm17.313034 -0.796875l0 13.3125l-1.078125 0l0 -1.828125l-0.046875 0q-0.40625 0.96875 -1.40625 1.546875q-0.984375 0.5625 -2.03125 0.5625q-1.96875 0 -3.15625 -1.375q-1.171875 -1.390625 -1.171875 -3.71875q0 -2.296875 1.171875 -3.6875q1.171875 -1.40625 3.15625 -1.40625q1.125 0 2.046875 0.546875q0.921875 0.546875 1.296875 1.5625l0.046875 0l0 -5.515625l1.171875 0zm-7.703125 8.5q0 1.78125 0.84375 2.953125q0.84375 1.15625 2.296875 1.15625q1.625 0 2.5 -1.140625q0.890625 -1.15625 0.890625 -2.96875q0 -1.8125 -0.890625 -2.953125q-0.875 -1.15625 -2.5 -1.15625q-1.4375 0 -2.296875 1.140625q-0.84375 1.125 -0.84375 2.96875zm13.744019 -5.09375q1.8125 0 2.671875 0.796875q0.859375 0.78125 0.859375 2.21875l0 5.234375q0 0.296875 0.15625 0.484375q0.171875 0.171875 0.53125 0.171875q0.109375 0 0.1875 0q0.09375 -0.015625 0.1875 -0.0625l0 0.984375q-0.21875 0.046875 -0.390625 0.0625q-0.171875 0.015625 -0.359375 0.015625q-0.765625 0 -1.078125 -0.359375q-0.3125 -0.375 -0.3125 -1.21875l0 -0.09375l-0.046875 0q-0.71875 1.09375 -1.515625 1.53125q-0.78125 0.421875 -1.984375 0.421875q-1.453125 0 -2.34375 -0.734375q-0.890625 -0.734375 -0.890625 -2.09375q0 -1.390625 0.96875 -2.09375q0.984375 -0.703125 4.34375 -1.0q0.765625 -0.078125 1.0625 -0.359375q0.3125 -0.28125 0.3125 -0.9375q0 -0.984375 -0.59375 -1.484375q-0.59375 -0.5 -1.921875 -0.5q-1.21875 0 -1.890625 0.578125q-0.65625 0.578125 -0.6875 1.671875l-1.171875 0q0.078125 -1.59375 1.078125 -2.40625q1.015625 -0.828125 2.828125 -0.828125zm2.3125 4.640625q-0.171875 0.328125 -1.109375 0.453125q-0.9375 0.125 -2.0625 0.328125q-1.125 0.1875 -1.703125 0.640625q-0.578125 0.453125 -0.578125 1.234375q0 0.84375 0.625 1.375q0.640625 0.53125 1.515625 0.53125q1.4375 0 2.390625 -0.859375q0.96875 -0.859375 0.96875 -2.125l0 -1.578125l-0.046875 0zm5.4333954 -7.25l0 2.890625l1.96875 0l0 0.984375l-1.96875 0l0 6.578125q0 0.734375 0.28125 0.96875q0.28125 0.21875 0.71875 0.21875q0.171875 0 0.421875 -0.015625q0.265625 -0.015625 0.546875 -0.03125l0 1.0q-0.265625 0.015625 -0.53125 0.015625q-0.25 0.015625 -0.515625 0.015625q-1.171875 0 -1.640625 -0.4375q-0.453125 -0.453125 -0.453125 -1.609375l0 -6.703125l-1.6875 0l0 -0.984375l1.6875 0l0 -2.890625l1.171875 0zm7.457855 2.609375q1.8125 0 2.671875 0.796875q0.859375 0.78125 0.859375 2.21875l0 5.234375q0 0.296875 0.15625 0.484375q0.171875 0.171875 0.53125 0.171875q0.109375 0 0.1875 0q0.09375 -0.015625 0.1875 -0.0625l0 0.984375q-0.21875 0.046875 -0.390625 0.0625q-0.171875 0.015625 -0.359375 0.015625q-0.765625 0 -1.078125 -0.359375q-0.3125 -0.375 -0.3125 -1.21875l0 -0.09375l-0.046875 0q-0.71875 1.09375 -1.515625 1.53125q-0.78125 0.421875 -1.984375 0.421875q-1.453125 0 -2.34375 -0.734375q-0.890625 -0.734375 -0.890625 -2.09375q0 -1.390625 0.96875 -2.09375q0.984375 -0.703125 4.34375 -1.0q0.765625 -0.078125 1.0625 -0.359375q0.3125 -0.28125 0.3125 -0.9375q0 -0.984375 -0.59375 -1.484375q-0.59375 -0.5 -1.921875 -0.5q-1.21875 0 -1.890625 0.578125q-0.65625 0.578125 -0.6875 1.671875l-1.171875 0q0.078125 -1.59375 1.078125 -2.40625q1.015625 -0.828125 2.828125 -0.828125zm2.3125 4.640625q-0.171875 0.328125 -1.109375 0.453125q-0.9375 0.125 -2.0625 0.328125q-1.125 0.1875 -1.703125 0.640625q-0.578125 0.453125 -0.578125 1.234375q0 0.84375 0.625 1.375q0.640625 0.53125 1.515625 0.53125q1.4375 0 2.390625 -0.859375q0.96875 -0.859375 0.96875 -2.125l0 -1.578125l-0.046875 0z" fill-rule="nonzero"/><path fill="#000000" fill-opacity="0.0" d="m525.83203 106.05774l195.62201 0l0 38.173233l-195.62201 0z" fill-rule="evenodd"/><path fill="#45818e" d="m540.01953 123.07149q2.046875 0 3.296875 1.4375q1.25 1.421875 1.25 3.65625q0 1.34375 -0.515625 2.515625q-0.515625 1.171875 -1.5625 1.875q-1.046875 0.703125 -2.46875 0.703125q-2.046875 0 -3.296875 -1.4375q-1.25 -1.4375 -1.25 -3.65625q0 -2.234375 1.25 -3.65625q1.25 -1.4375 3.296875 -1.4375zm-3.375 5.09375q0 1.703125 0.921875 2.90625q0.921875 1.203125 2.453125 1.203125q1.53125 0 2.453125 -1.203125q0.921875 -1.203125 0.921875 -2.90625q0 -1.6875 -0.921875 -2.890625q-0.921875 -1.21875 -2.46875 -1.21875q-1.5 0 -2.4375 1.203125q-0.921875 1.1875 -0.921875 2.90625zm10.844482 -4.8125l0 6.265625q0 1.21875 0.5625 1.9375q0.578125 0.71875 2.0 0.71875q1.34375 0 2.125 -1.078125q0.78125 -1.09375 0.78125 -2.71875l0 -5.125l1.171875 0l0 9.625l-1.09375 0l0 -1.734375l-0.03125 0q-0.46875 0.953125 -1.34375 1.484375q-0.875 0.53125 -1.984375 0.53125q-1.734375 0 -2.546875 -0.921875q-0.8125 -0.921875 -0.8125 -2.65625l0 -6.328125l1.171875 0zm10.723572 -2.890625l0 2.890625l1.96875 0l0 0.984375l-1.96875 0l0 6.578125q0 0.734375 0.28125 0.96875q0.28125 0.21875 0.71875 0.21875q0.171875 0 0.421875 -0.015625q0.265625 -0.015625 0.546875 -0.03125l0 1.0q-0.265625 0.015625 -0.53125 0.015625q-0.25 0.015625 -0.515625 0.015625q-1.171875 0 -1.640625 -0.4375q-0.453125 -0.453125 -0.453125 -1.609375l0 -6.703125l-1.6875 0l0 -0.984375l1.6875 0l0 -2.890625l1.171875 0zm8.207825 2.609375q2.03125 0 3.171875 1.421875q1.15625 1.40625 1.15625 3.671875q0 2.25 -1.15625 3.671875q-1.15625 1.421875 -3.15625 1.421875q-1.15625 0 -2.078125 -0.5625q-0.921875 -0.5625 -1.28125 -1.546875l-0.03125 0l0 5.390625l-1.171875 0l0 -13.1875l1.078125 0l0 1.828125l0.03125 0q0.4375 -1.015625 1.359375 -1.5625q0.921875 -0.546875 2.078125 -0.546875zm-3.375 5.09375q0 1.828125 0.875 2.96875q0.875 1.140625 2.5 1.140625q1.484375 0 2.3125 -1.171875q0.84375 -1.171875 0.84375 -2.9375q0 -1.765625 -0.84375 -2.9375q-0.828125 -1.171875 -2.34375 -1.171875q-1.625 0 -2.484375 1.03125q-0.859375 1.03125 -0.859375 3.078125zm10.697144 -4.8125l0 6.265625q0 1.21875 0.5625 1.9375q0.578125 0.71875 2.0 0.71875q1.34375 0 2.125 -1.078125q0.78125 -1.09375 0.78125 -2.71875l0 -5.125l1.171875 0l0 9.625l-1.09375 0l0 -1.734375l-0.03125 0q-0.46875 0.953125 -1.34375 1.484375q-0.875 0.53125 -1.984375 0.53125q-1.734375 0 -2.546875 -0.921875q-0.8125 -0.921875 -0.8125 -2.65625l0 -6.328125l1.171875 0zm10.723572 -2.890625l0 2.890625l1.96875 0l0 0.984375l-1.96875 0l0 6.578125q0 0.734375 0.28125 0.96875q0.28125 0.21875 0.71875 0.21875q0.171875 0 0.421875 -0.015625q0.265625 -0.015625 0.546875 -0.03125l0 1.0q-0.265625 0.015625 -0.53125 0.015625q-0.25 0.015625 -0.515625 0.015625q-1.171875 0 -1.640625 -0.4375q-0.453125 -0.453125 -0.453125 -1.609375l0 -6.703125l-1.6875 0l0 -0.984375l1.6875 0l0 -2.890625l1.171875 0zm17.31305 -0.796875l0 13.3125l-1.078125 0l0 -1.828125l-0.046875 0q-0.40625 0.96875 -1.40625 1.546875q-0.984375 0.5625 -2.03125 0.5625q-1.96875 0 -3.15625 -1.375q-1.171875 -1.390625 -1.171875 -3.71875q0 -2.296875 1.171875 -3.6875q1.171875 -1.40625 3.15625 -1.40625q1.125 0 2.046875 0.546875q0.921875 0.546875 1.296875 1.5625l0.046875 0l0 -5.515625l1.171875 0zm-7.703125 8.5q0 1.78125 0.84375 2.953125q0.84375 1.15625 2.296875 1.15625q1.625 0 2.5 -1.140625q0.890625 -1.15625 0.890625 -2.96875q0 -1.8125 -0.890625 -2.953125q-0.875 -1.15625 -2.5 -1.15625q-1.4375 0 -2.296875 1.140625q-0.84375 1.125 -0.84375 2.96875zm13.744019 -5.09375q1.8125 0 2.671875 0.796875q0.859375 0.78125 0.859375 2.21875l0 5.234375q0 0.296875 0.15625 0.484375q0.171875 0.171875 0.53125 0.171875q0.109375 0 0.1875 0q0.09375 -0.015625 0.1875 -0.0625l0 0.984375q-0.21875 0.046875 -0.390625 0.0625q-0.171875 0.015625 -0.359375 0.015625q-0.765625 0 -1.078125 -0.359375q-0.3125 -0.375 -0.3125 -1.21875l0 -0.09375l-0.046875 0q-0.71875 1.09375 -1.515625 1.53125q-0.78125 0.421875 -1.984375 0.421875q-1.453125 0 -2.34375 -0.734375q-0.890625 -0.734375 -0.890625 -2.09375q0 -1.390625 0.96875 -2.09375q0.984375 -0.703125 4.34375 -1.0q0.765625 -0.078125 1.0625 -0.359375q0.3125 -0.28125 0.3125 -0.9375q0 -0.984375 -0.59375 -1.484375q-0.59375 -0.5 -1.921875 -0.5q-1.21875 0 -1.890625 0.578125q-0.65625 0.578125 -0.6875 1.671875l-1.171875 0q0.078125 -1.59375 1.078125 -2.40625q1.015625 -0.828125 2.828125 -0.828125zm2.3125 4.640625q-0.171875 0.328125 -1.109375 0.453125q-0.9375 0.125 -2.0625 0.328125q-1.125 0.1875 -1.703125 0.640625q-0.578125 0.453125 -0.578125 1.234375q0 0.84375 0.625 1.375q0.640625 0.53125 1.515625 0.53125q1.4375 0 2.390625 -0.859375q0.96875 -0.859375 0.96875 -2.125l0 -1.578125l-0.046875 0zm5.4334106 -7.25l0 2.890625l1.96875 0l0 0.984375l-1.96875 0l0 6.578125q0 0.734375 0.28125 0.96875q0.28125 0.21875 0.71875 0.21875q0.171875 0 0.421875 -0.015625q0.265625 -0.015625 0.546875 -0.03125l0 1.0q-0.265625 0.015625 -0.53125 0.015625q-0.25 0.015625 -0.515625 0.015625q-1.171875 0 -1.640625 -0.4375q-0.453125 -0.453125 -0.453125 -1.609375l0 -6.703125l-1.6875 0l0 -0.984375l1.6875 0l0 -2.890625l1.171875 0zm7.4578247 2.609375q1.8125 0 2.671875 0.796875q0.859375 0.78125 0.859375 2.21875l0 5.234375q0 0.296875 0.15625 0.484375q0.171875 0.171875 0.53125 0.171875q0.109375 0 0.1875 0q0.09375 -0.015625 0.1875 -0.0625l0 0.984375q-0.21875 0.046875 -0.390625 0.0625q-0.171875 0.015625 -0.359375 0.015625q-0.765625 0 -1.078125 -0.359375q-0.3125 -0.375 -0.3125 -1.21875l0 -0.09375l-0.046875 0q-0.71875 1.09375 -1.515625 1.53125q-0.78125 0.421875 -1.984375 0.421875q-1.453125 0 -2.34375 -0.734375q-0.890625 -0.734375 -0.890625 -2.09375q0 -1.390625 0.96875 -2.09375q0.984375 -0.703125 4.34375 -1.0q0.765625 -0.078125 1.0625 -0.359375q0.3125 -0.28125 0.3125 -0.9375q0 -0.984375 -0.59375 -1.484375q-0.59375 -0.5 -1.921875 -0.5q-1.21875 0 -1.890625 0.578125q-0.65625 0.578125 -0.6875 1.671875l-1.171875 0q0.078125 -1.59375 1.078125 -2.40625q1.015625 -0.828125 2.828125 -0.828125zm2.3125 4.640625q-0.171875 0.328125 -1.109375 0.453125q-0.9375 0.125 -2.0625 0.328125q-1.125 0.1875 -1.703125 0.640625q-0.578125 0.453125 -0.578125 1.234375q0 0.84375 0.625 1.375q0.640625 0.53125 1.515625 0.53125q1.4375 0 2.390625 -0.859375q0.96875 -0.859375 0.96875 -2.125l0 -1.578125l-0.046875 0z" fill-rule="nonzero"/></g></svg>